<svg xmlns="http://www.w3.org/2000/svg" width="800" height="1200" viewBox="0 0 800 1200" role="img" aria-labelledby="title desc">
  <title id="title">Modern Dating — BOOK</title><desc id="desc">Duotone photographic abstraction: soft oxblood and copper glows like city lights at night, with a dotted navigation path over a deep warm near-black ground.</desc>
  <defs><filter id="paper" x="-10%" y="-10%" width="120%" height="120%"><feTurbulence type="fractalNoise" baseFrequency="0.72" numOctaves="3" seed="47" result="n"/><feColorMatrix in="n" type="saturate" values="0" result="mono"/><feComponentTransfer in="mono" result="soft"><feFuncA type="table" tableValues="0 0.05"/></feComponentTransfer><feBlend in="SourceGraphic" in2="soft" mode="soft-light"/></filter><radialGradient id="gox"><stop offset="0" stop-color="#7A3A34"/><stop offset=".55" stop-color="#682F2D" stop-opacity=".8"/><stop offset="1" stop-color="#682F2D" stop-opacity="0"/></radialGradient><radialGradient id="gcu"><stop offset="0" stop-color="#E8A87F"/><stop offset=".5" stop-color="#C98762" stop-opacity=".7"/><stop offset="1" stop-color="#C98762" stop-opacity="0"/></radialGradient><filter id="soft" x="-60%" y="-60%" width="220%" height="220%"><feGaussianBlur stdDeviation="46"/></filter><filter id="soft2" x="-60%" y="-60%" width="220%" height="220%"><feGaussianBlur stdDeviation="18"/></filter></defs>
  <rect width="800" height="1200" fill="#0B0908"/><g filter="url(#paper)"><rect x="44" y="44" width="712" height="1112" fill="none" stroke="#F3EDE3" stroke-opacity=".34"/><text x="76" y="102" fill="#F3EDE3" font-family="Arial,Helvetica,sans-serif" font-size="25" font-weight="700" letter-spacing="8">BOOK</text><text x="724" y="102" fill="#F3EDE3" font-family="Arial,Helvetica,sans-serif" font-size="18" text-anchor="end" letter-spacing="4">VOL. 03</text><line x1="76" y1="139" x2="724" y2="139" stroke="#F3EDE3" stroke-opacity=".38"/>
  <g><ellipse cx="205" cy="360" rx="270" ry="240" fill="url(#gox)" filter="url(#soft)"/><ellipse cx="620" cy="280" rx="210" ry="190" fill="url(#gcu)" filter="url(#soft)"/><ellipse cx="640" cy="560" rx="230" ry="170" fill="url(#gox)" filter="url(#soft)"/><ellipse cx="330" cy="600" rx="160" ry="120" fill="url(#gcu)" filter="url(#soft2)" opacity=".7"/><circle cx="560" cy="420" r="26" fill="url(#gcu)" filter="url(#soft2)"/></g>
  <g fill="#F3EDE3"><circle cx="118" cy="620" r="7" opacity=".85"/><circle cx="212" cy="566" r="5" opacity=".6"/><circle cx="308" cy="520" r="8" opacity=".9"/><circle cx="404" cy="472" r="5" opacity=".55"/><circle cx="492" cy="428" r="7" opacity=".8"/><circle cx="586" cy="386" r="5" opacity=".6"/><circle cx="672" cy="340" r="8" opacity=".9"/></g>
  <g fill="#C98762"><circle cx="118" cy="620" r="12" fill="none" stroke="#C98762" stroke-width="1.5" opacity=".7"/><circle cx="672" cy="340" r="12" fill="none" stroke="#C98762" stroke-width="1.5" opacity=".7"/><circle cx="640" cy="248" r="4" opacity=".8"/><circle cx="524" cy="204" r="5" opacity=".6"/><circle cx="398" cy="236" r="4" opacity=".7"/><circle cx="286" cy="188" r="5" opacity=".55"/><circle cx="172" cy="244" r="4" opacity=".7"/></g>
  <path d="M118 620C212 566 268 556 308 520C352 482 448 500 492 428C528 370 620 392 672 340" fill="none" stroke="#F3EDE3" stroke-opacity=".5" stroke-width="2" stroke-dasharray="1 9" stroke-linecap="round"/>
  <text x="76" y="784" fill="#E6DCD0" font-family="Georgia,'Times New Roman',serif" font-size="26" font-style="italic">A clearer map for apps, ambiguity,</text><text x="76" y="817" fill="#E6DCD0" font-family="Georgia,'Times New Roman',serif" font-size="26" font-style="italic">and real-world connection.</text>
  <text x="72" y="930" fill="#F3EDE3" font-family="Georgia,'Times New Roman',serif" font-size="83" letter-spacing="-3">MODERN</text><text x="72" y="1015" fill="#F3EDE3" font-family="Georgia,'Times New Roman',serif" font-size="83" letter-spacing="-3">DATING</text>
  <line x1="76" y1="1072" x2="724" y2="1072" stroke="#F3EDE3" stroke-opacity=".38"/><text x="76" y="1114" fill="#F3EDE3" font-family="Arial,Helvetica,sans-serif" font-size="17" letter-spacing="4">THE PRIVATE SHELF</text><text x="724" y="1114" fill="#F3EDE3" font-family="Arial,Helvetica,sans-serif" font-size="17" text-anchor="end" letter-spacing="3">ORIGINAL EDITION</text></g>
</svg>